<svg xmlns="http://www.w3.org/2000/svg" xmlns:xlink="http://www.w3.org/1999/xlink" width="500" zoomAndPan="magnify" viewBox="0 0 375 374.999991" height="500" preserveAspectRatio="xMidYMid meet" version="1.0"><defs><clipPath id="66295c07b2"><path d="M 19.097656 19.097656 L 355.902344 19.097656 L 355.902344 355.902344 L 19.097656 355.902344 Z M 19.097656 19.097656 " clip-rule="nonzero"/></clipPath><clipPath id="ce1f0a9582"><path d="M 187.5 19.097656 C 94.496094 19.097656 19.097656 94.496094 19.097656 187.5 C 19.097656 280.503906 94.496094 355.902344 187.5 355.902344 C 280.503906 355.902344 355.902344 280.503906 355.902344 187.5 C 355.902344 94.496094 280.503906 19.097656 187.5 19.097656 Z M 187.5 19.097656 " clip-rule="nonzero"/></clipPath><clipPath id="df70d00816"><path d="M 19.097656 19.097656 L 355.867188 19.097656 L 355.867188 355.867188 L 19.097656 355.867188 Z M 19.097656 19.097656 " clip-rule="nonzero"/></clipPath><clipPath id="b5b55ee64b"><path d="M 187.484375 19.097656 C 94.488281 19.097656 19.097656 94.488281 19.097656 187.484375 C 19.097656 280.480469 94.488281 355.867188 187.484375 355.867188 C 280.480469 355.867188 355.867188 280.480469 355.867188 187.484375 C 355.867188 94.488281 280.480469 19.097656 187.484375 19.097656 Z M 187.484375 19.097656 " clip-rule="nonzero"/></clipPath><clipPath id="64575c4cd1"><path d="M 113 81 L 264 81 L 264 297.148438 L 113 297.148438 Z M 113 81 " clip-rule="nonzero"/></clipPath></defs><rect x="-37.5" width="450" fill="#ffffff" y="-37.499999" height="449.999989" fill-opacity="1"/><rect x="-37.5" width="450" fill="#ffffff" y="-37.499999" height="449.999989" fill-opacity="1"/><g clip-path="url(#66295c07b2)"><g clip-path="url(#ce1f0a9582)"><path fill="#b8ded9" d="M 19.097656 19.097656 L 355.902344 19.097656 L 355.902344 355.902344 L 19.097656 355.902344 Z M 19.097656 19.097656 " fill-opacity="1" fill-rule="nonzero"/></g></g><g clip-path="url(#df70d00816)"><g clip-path="url(#b5b55ee64b)"><path stroke-linecap="butt" transform="matrix(3.099414, 0, 0, 3.099414, 19.098242, 19.098238)" fill="none" stroke-linejoin="miter" d="M 54.328378 -0.000187628 C 24.323966 -0.000187628 -0.00018908 24.323967 -0.00018908 54.32838 C -0.00018908 84.332792 24.323966 108.655687 54.328378 108.655687 C 84.33279 108.655687 108.655685 84.332792 108.655685 54.32838 C 108.655685 24.323967 84.33279 -0.000187628 54.328378 -0.000187628 Z M 54.328378 -0.000187628 " stroke="#0e675b" stroke-width="0.483962" stroke-opacity="1" stroke-miterlimit="4"/></g></g><g clip-path="url(#64575c4cd1)"><path fill="#0e675b" d="M 194.871094 180.328125 C 189.828125 180.328125 187.03125 183.417969 186.152344 186.128906 C 185.222656 189.019531 186.109375 191.875 188.40625 193.402344 C 190.257812 194.636719 192.023438 194.796875 193.644531 193.859375 C 196.769531 192.078125 198.796875 186.621094 198.484375 180.867188 C 197.496094 180.574219 196.433594 180.371094 195.300781 180.335938 C 195.15625 180.328125 195.011719 180.328125 194.871094 180.328125 Z M 164.207031 160.011719 C 161.597656 160.460938 159.097656 161.195312 156.816406 162.207031 C 150.625 164.960938 146.265625 169.617188 144.195312 175.671875 C 142.125 181.722656 143.488281 188.445312 147.574219 192.390625 C 151.910156 196.5625 159.460938 196.824219 163.421875 192.921875 C 164.867188 191.496094 165.988281 189.5 166.757812 186.992188 C 169.476562 178.054688 167.15625 167.082031 164.207031 160.011719 Z M 148.34375 297.875 C 144.769531 297.875 141.382812 297.511719 138.183594 296.785156 C 127.714844 294.394531 119.160156 287.875 115.300781 279.34375 C 110.90625 269.664062 113.414062 257.855469 121.136719 251.882812 C 129.472656 245.960938 138.183594 246.417969 146.59375 246.863281 C 150.464844 247.066406 154.46875 247.277344 158.371094 246.863281 C 205.714844 243.5625 237.746094 213.261719 240.035156 169.691406 C 240.71875 156.4375 238.441406 144.257812 233.421875 134.476562 C 227.585938 123.082031 217.9375 114.777344 206.972656 111.703125 C 195.03125 108.351562 181.929688 111.855469 174.367188 120.414062 C 167.265625 128.472656 160.8125 142.949219 165.644531 157.5625 C 172.511719 156.71875 179.917969 157.664062 186.28125 160.382812 C 197.371094 165.121094 199.988281 174.332031 200.570312 179.253906 C 202.34375 179.980469 203.824219 180.9375 204.945312 181.796875 C 211.925781 187.152344 215.414062 194.636719 214.769531 202.871094 C 214.0625 211.945312 208.367188 220.875 200.597656 225.105469 C 195.933594 227.648438 190.417969 227.691406 185.644531 227.394531 C 183.636719 227.269531 181.609375 227.046875 179.65625 226.835938 C 176.84375 226.523438 173.929688 226.203125 171.082031 226.179688 C 165.542969 226.128906 161.066406 227.292969 157.761719 229.632812 C 153.824219 232.421875 151.765625 237.160156 152.746094 241.15625 C 152.898438 241.753906 152.535156 242.355469 151.933594 242.507812 C 151.34375 242.648438 150.734375 242.285156 150.589844 241.6875 C 149.398438 236.828125 151.816406 231.121094 156.476562 227.816406 C 160.167969 225.207031 165.09375 223.929688 171.101562 223.957031 C 174.066406 223.980469 177.03125 224.3125 179.902344 224.625 C 181.828125 224.835938 183.820312 225.054688 185.78125 225.171875 C 190.242188 225.453125 195.359375 225.425781 199.53125 223.164062 C 206.671875 219.269531 211.90625 211.050781 212.558594 202.703125 C 212.972656 197.425781 211.746094 189.820312 203.59375 183.5625 C 202.828125 182.964844 201.855469 182.320312 200.730469 181.761719 C 200.808594 188.023438 198.425781 193.683594 194.75 195.785156 C 192.402344 197.136719 189.707031 196.941406 187.175781 195.253906 C 184.03125 193.160156 182.800781 189.308594 184.039062 185.453125 C 185.171875 181.925781 188.820312 177.878906 195.375 178.113281 C 196.375 178.148438 197.328125 178.285156 198.222656 178.496094 C 197.453125 173.882812 194.742188 166.414062 185.410156 162.417969 C 179.574219 159.929688 172.796875 159.015625 166.480469 159.691406 C 169.460938 167.132812 171.707031 178.367188 168.878906 187.644531 C 168.007812 190.507812 166.691406 192.820312 164.976562 194.511719 C 160.128906 199.28125 151.273438 199.039062 146.027344 193.988281 C 141.332031 189.449219 139.753906 181.804688 142.09375 174.957031 C 144.363281 168.300781 149.144531 163.1875 155.914062 160.179688 C 158.234375 159.140625 160.769531 158.382812 163.414062 157.902344 C 158.515625 142.519531 165.261719 127.382812 172.703125 118.941406 C 180.8125 109.761719 194.820312 105.992188 207.574219 109.566406 C 219.128906 112.800781 229.273438 121.519531 235.40625 133.464844 C 240.59375 143.589844 242.96875 156.160156 242.25 169.800781 C 241.144531 190.894531 233.015625 209.539062 218.757812 223.710938 C 203.773438 238.605469 182.960938 247.378906 158.566406 249.078125 C 154.519531 249.507812 150.4375 249.289062 146.484375 249.085938 C 138.070312 248.636719 130.132812 248.214844 122.453125 253.664062 C 115.6875 258.910156 113.40625 269.796875 117.316406 278.429688 C 120.898438 286.328125 128.882812 292.378906 138.679688 294.617188 C 146.722656 296.449219 156.097656 295.847656 166.554688 292.832031 C 183.855469 287.851562 200.46875 277.671875 214.601562 263.402344 C 226.96875 250.929688 237.714844 235.089844 246.53125 216.34375 C 257.03125 194.035156 261.855469 173.941406 261.289062 154.902344 C 260.605469 132.027344 251.550781 111.5 236.445312 98.585938 C 218.773438 83.472656 192.5625 79.554688 171.242188 88.820312 C 149.914062 98.097656 134.90625 119.929688 133.898438 143.160156 C 133.898438 143.277344 133.679688 157.125 138.382812 168.273438 C 138.621094 168.839844 138.351562 169.5 137.785156 169.734375 C 137.226562 169.972656 136.570312 169.703125 136.332031 169.144531 C 131.449219 157.546875 131.667969 143.675781 131.679688 143.09375 C 132.726562 119.003906 148.269531 96.390625 170.355469 86.785156 C 192.445312 77.179688 219.585938 81.253906 237.890625 96.90625 C 253.46875 110.21875 262.808594 131.335938 263.511719 154.835938 C 264.085938 174.230469 259.195312 194.664062 248.542969 217.292969 C 239.613281 236.273438 228.726562 252.304688 216.183594 264.964844 C 201.78125 279.503906 184.835938 289.875 167.171875 294.96875 C 160.464844 296.90625 154.164062 297.875 148.34375 297.875 " fill-opacity="1" fill-rule="nonzero"/></g></svg>