<svg xmlns="http://www.w3.org/2000/svg" xmlns:xlink="http://www.w3.org/1999/xlink" width="500" zoomAndPan="magnify" viewBox="0 0 375 112.499997" height="150" preserveAspectRatio="xMidYMid meet" version="1.0"><defs><g/><clipPath id="4beb9e279e"><path d="M 5.800781 14.683594 L 88.4375 14.683594 L 88.4375 97.320312 L 5.800781 97.320312 Z M 5.800781 14.683594 " clip-rule="nonzero"/></clipPath><clipPath id="8360b65d1c"><path d="M 47.121094 14.683594 C 24.300781 14.683594 5.800781 33.183594 5.800781 56 C 5.800781 78.820312 24.300781 97.320312 47.121094 97.320312 C 69.9375 97.320312 88.4375 78.820312 88.4375 56 C 88.4375 33.183594 69.9375 14.683594 47.121094 14.683594 Z M 47.121094 14.683594 " clip-rule="nonzero"/></clipPath><clipPath id="a978ed3dd4"><path d="M 5.800781 14.683594 L 88.429688 14.683594 L 88.429688 97.3125 L 5.800781 97.3125 Z M 5.800781 14.683594 " clip-rule="nonzero"/></clipPath><clipPath id="573e27fcdf"><path d="M 47.117188 14.683594 C 24.300781 14.683594 5.800781 33.179688 5.800781 55.996094 C 5.800781 78.8125 24.300781 97.3125 47.117188 97.3125 C 69.933594 97.3125 88.429688 78.8125 88.429688 55.996094 C 88.429688 33.179688 69.933594 14.683594 47.117188 14.683594 Z M 47.117188 14.683594 " clip-rule="nonzero"/></clipPath><clipPath id="b48bb22417"><path d="M 28.257812 30 L 66 30 L 66 82.902344 L 28.257812 82.902344 Z M 28.257812 30 " clip-rule="nonzero"/></clipPath></defs><g clip-path="url(#4beb9e279e)"><g clip-path="url(#8360b65d1c)"><path fill="#b8ded9" d="M 5.800781 14.683594 L 88.4375 14.683594 L 88.4375 97.320312 L 5.800781 97.320312 Z M 5.800781 14.683594 " fill-opacity="1" fill-rule="nonzero"/></g></g><g clip-path="url(#a978ed3dd4)"><g clip-path="url(#573e27fcdf)"><path stroke-linecap="butt" transform="matrix(0.760452, 0, 0, 0.760452, 5.80207, 14.683138)" fill="none" stroke-linejoin="miter" d="M 54.329676 0.000599312 C 24.325938 0.000599312 -0.00169448 24.323095 -0.00169448 54.326833 C -0.00169448 84.330571 24.325938 108.658204 54.329676 108.658204 C 84.333414 108.658204 108.65591 84.330571 108.65591 54.326833 C 108.65591 24.323095 84.333414 0.000599312 54.329676 0.000599312 Z M 54.329676 0.000599312 " stroke="#0e675b" stroke-width="1.963783" stroke-opacity="1" stroke-miterlimit="4"/></g></g><g clip-path="url(#b48bb22417)"><path fill="#0e675b" d="M 48.929688 54.242188 C 47.691406 54.242188 47.003906 55 46.789062 55.664062 C 46.5625 56.375 46.777344 57.074219 47.34375 57.449219 C 47.796875 57.753906 48.230469 57.792969 48.628906 57.5625 C 49.394531 57.125 49.890625 55.785156 49.816406 54.375 C 49.574219 54.300781 49.3125 54.25 49.035156 54.242188 C 49 54.242188 48.964844 54.242188 48.929688 54.242188 Z M 41.40625 49.257812 C 40.765625 49.367188 40.152344 49.546875 39.589844 49.796875 C 38.074219 50.472656 37.003906 51.613281 36.496094 53.097656 C 35.988281 54.582031 36.320312 56.234375 37.324219 57.199219 C 38.386719 58.226562 40.242188 58.289062 41.210938 57.332031 C 41.566406 56.980469 41.84375 56.492188 42.03125 55.875 C 42.699219 53.683594 42.128906 50.992188 41.40625 49.257812 Z M 37.511719 83.082031 C 36.636719 83.082031 35.804688 82.992188 35.019531 82.816406 C 32.453125 82.226562 30.351562 80.628906 29.40625 78.535156 C 28.328125 76.160156 28.941406 73.261719 30.835938 71.796875 C 32.882812 70.34375 35.019531 70.457031 37.082031 70.566406 C 38.03125 70.617188 39.015625 70.667969 39.972656 70.566406 C 51.589844 69.757812 59.449219 62.320312 60.011719 51.632812 C 60.179688 48.378906 59.617188 45.390625 58.386719 42.992188 C 56.957031 40.195312 54.589844 38.160156 51.898438 37.402344 C 48.96875 36.582031 45.753906 37.441406 43.898438 39.542969 C 42.15625 41.519531 40.570312 45.070312 41.757812 48.65625 C 43.441406 48.449219 45.261719 48.679688 46.820312 49.347656 C 49.542969 50.511719 50.183594 52.769531 50.328125 53.976562 C 50.761719 54.15625 51.125 54.390625 51.402344 54.601562 C 53.113281 55.914062 53.96875 57.753906 53.8125 59.773438 C 53.636719 62 52.238281 64.1875 50.332031 65.226562 C 49.1875 65.851562 47.835938 65.863281 46.664062 65.789062 C 46.171875 65.757812 45.675781 65.703125 45.195312 65.652344 C 44.503906 65.574219 43.789062 65.496094 43.09375 65.492188 C 41.734375 65.476562 40.632812 65.765625 39.824219 66.339844 C 38.859375 67.023438 38.351562 68.183594 38.59375 69.164062 C 38.628906 69.3125 38.539062 69.460938 38.394531 69.496094 C 38.25 69.53125 38.097656 69.441406 38.0625 69.296875 C 37.773438 68.105469 38.363281 66.703125 39.507812 65.894531 C 40.414062 65.253906 41.621094 64.941406 43.097656 64.945312 C 43.824219 64.953125 44.550781 65.03125 45.253906 65.109375 C 45.726562 65.160156 46.21875 65.214844 46.699219 65.246094 C 47.792969 65.3125 49.046875 65.304688 50.074219 64.75 C 51.824219 63.796875 53.109375 61.777344 53.269531 59.730469 C 53.371094 58.4375 53.070312 56.570312 51.070312 55.035156 C 50.878906 54.886719 50.640625 54.730469 50.367188 54.59375 C 50.386719 56.128906 49.800781 57.519531 48.898438 58.035156 C 48.324219 58.367188 47.660156 58.316406 47.039062 57.902344 C 46.269531 57.390625 45.964844 56.445312 46.269531 55.5 C 46.550781 54.632812 47.445312 53.640625 49.050781 53.699219 C 49.296875 53.707031 49.53125 53.738281 49.75 53.792969 C 49.5625 52.660156 48.898438 50.828125 46.605469 49.847656 C 45.175781 49.234375 43.511719 49.011719 41.960938 49.179688 C 42.695312 51.003906 43.246094 53.761719 42.550781 56.035156 C 42.335938 56.738281 42.015625 57.304688 41.59375 57.722656 C 40.402344 58.890625 38.230469 58.832031 36.945312 57.59375 C 35.792969 56.480469 35.40625 54.605469 35.980469 52.921875 C 36.535156 51.289062 37.710938 50.035156 39.371094 49.296875 C 39.941406 49.042969 40.5625 48.855469 41.210938 48.738281 C 40.007812 44.964844 41.664062 41.25 43.488281 39.179688 C 45.480469 36.925781 48.914062 36.003906 52.046875 36.878906 C 54.878906 37.671875 57.371094 39.8125 58.875 42.742188 C 60.148438 45.226562 60.730469 48.3125 60.554688 51.660156 C 60.28125 56.835938 58.289062 61.40625 54.789062 64.886719 C 51.113281 68.539062 46.007812 70.691406 40.019531 71.109375 C 39.027344 71.214844 38.027344 71.160156 37.058594 71.113281 C 34.992188 71 33.042969 70.898438 31.160156 72.234375 C 29.5 73.523438 28.941406 76.191406 29.902344 78.3125 C 30.78125 80.25 32.738281 81.734375 35.140625 82.28125 C 37.113281 82.730469 39.414062 82.585938 41.980469 81.84375 C 46.226562 80.621094 50.300781 78.125 53.769531 74.625 C 56.804688 71.5625 59.441406 67.675781 61.605469 63.078125 C 64.179688 57.605469 65.363281 52.675781 65.222656 48.003906 C 65.054688 42.390625 62.835938 37.355469 59.128906 34.1875 C 54.792969 30.476562 48.363281 29.515625 43.132812 31.789062 C 37.898438 34.066406 34.214844 39.421875 33.96875 45.121094 C 33.96875 45.152344 33.914062 48.546875 35.070312 51.285156 C 35.128906 51.421875 35.0625 51.585938 34.921875 51.640625 C 34.785156 51.699219 34.625 51.632812 34.566406 51.496094 C 33.367188 48.652344 33.421875 45.25 33.425781 45.105469 C 33.679688 39.195312 37.496094 33.648438 42.914062 31.289062 C 48.332031 28.933594 54.992188 29.933594 59.484375 33.773438 C 63.304688 37.039062 65.597656 42.222656 65.769531 47.988281 C 65.910156 52.746094 64.710938 57.757812 62.097656 63.3125 C 59.90625 67.96875 57.234375 71.902344 54.15625 75.007812 C 50.625 78.574219 46.464844 81.121094 42.132812 82.371094 C 40.488281 82.84375 38.941406 83.082031 37.511719 83.082031 " fill-opacity="1" fill-rule="nonzero"/></g><g fill="#0e675b" fill-opacity="1"><g transform="translate(95.436064, 60.186235)"><g><path d="M 3.125 0 L 0.9375 0 C 1.226562 -0.289062 1.382812 -0.664062 1.40625 -1.125 C 1.4375 -1.59375 1.453125 -2.082031 1.453125 -2.59375 L 1.453125 -8.140625 C 1.453125 -10.222656 1.828125 -12.070312 2.578125 -13.6875 C 3.335938 -15.3125 4.46875 -16.582031 5.96875 -17.5 C 7.46875 -18.414062 9.316406 -18.875 11.515625 -18.875 L 18.03125 -18.875 C 17.738281 -18.582031 17.578125 -18.207031 17.546875 -17.75 C 17.523438 -17.289062 17.515625 -16.800781 17.515625 -16.28125 L 17.515625 -2.59375 C 17.515625 -2.082031 17.523438 -1.59375 17.546875 -1.125 C 17.578125 -0.664062 17.738281 -0.289062 18.03125 0 L 15.84375 0 C 16.132812 -0.289062 16.289062 -0.664062 16.3125 -1.125 C 16.34375 -1.59375 16.359375 -2.082031 16.359375 -2.59375 L 16.359375 -14.0625 C 16.160156 -13.257812 15.769531 -12.582031 15.1875 -12.03125 C 14.601562 -11.488281 13.894531 -11.019531 13.0625 -10.625 C 12.226562 -10.226562 11.34375 -9.847656 10.40625 -9.484375 C 9.46875 -9.128906 8.546875 -8.726562 7.640625 -8.28125 C 6.734375 -7.84375 5.90625 -7.304688 5.15625 -6.671875 C 4.414062 -6.046875 3.820312 -5.265625 3.375 -4.328125 C 2.925781 -3.398438 2.703125 -2.253906 2.703125 -0.890625 C 2.703125 -0.585938 2.84375 -0.289062 3.125 0 Z M 11.53125 -18.59375 C 10.007812 -18.59375 8.71875 -18.332031 7.65625 -17.8125 C 6.59375 -17.289062 5.726562 -16.617188 5.0625 -15.796875 C 4.394531 -14.972656 3.882812 -14.082031 3.53125 -13.125 C 3.1875 -12.175781 2.945312 -11.253906 2.8125 -10.359375 C 2.675781 -9.472656 2.609375 -8.71875 2.609375 -8.09375 L 2.609375 -2.296875 C 2.722656 -3.710938 3.046875 -4.898438 3.578125 -5.859375 C 4.117188 -6.816406 4.800781 -7.613281 5.625 -8.25 C 6.457031 -8.894531 7.351562 -9.4375 8.3125 -9.875 C 9.269531 -10.3125 10.222656 -10.703125 11.171875 -11.046875 C 12.117188 -11.390625 12.984375 -11.75 13.765625 -12.125 C 14.546875 -12.5 15.171875 -12.945312 15.640625 -13.46875 C 16.117188 -14 16.359375 -14.664062 16.359375 -15.46875 L 16.359375 -18.59375 Z M 11.53125 -18.59375 "/></g></g></g><g fill="#0e675b" fill-opacity="1"><g transform="translate(113.895849, 60.186235)"><g><path d="M 1.453125 -8.1875 C 1.453125 -8.707031 1.4375 -9.195312 1.40625 -9.65625 C 1.382812 -10.113281 1.226562 -10.488281 0.9375 -10.78125 L 3.125 -10.78125 C 2.84375 -10.488281 2.6875 -10.113281 2.65625 -9.65625 C 2.625 -9.195312 2.609375 -8.707031 2.609375 -8.1875 L 2.609375 -4.71875 C 2.609375 -3.226562 2.914062 -2.050781 3.53125 -1.1875 C 4.15625 -0.320312 5.082031 0.109375 6.3125 0.109375 C 6.90625 0.109375 7.503906 -0.03125 8.109375 -0.3125 C 8.722656 -0.601562 9.296875 -0.992188 9.828125 -1.484375 C 10.359375 -1.984375 10.785156 -2.535156 11.109375 -3.140625 C 11.429688 -3.742188 11.59375 -4.367188 11.59375 -5.015625 L 11.59375 -8.1875 C 11.59375 -8.707031 11.578125 -9.195312 11.546875 -9.65625 C 11.523438 -10.113281 11.367188 -10.488281 11.078125 -10.78125 L 13.265625 -10.78125 C 12.972656 -10.488281 12.8125 -10.113281 12.78125 -9.65625 C 12.757812 -9.195312 12.75 -8.707031 12.75 -8.1875 L 12.75 -2.59375 C 12.75 -1.976562 12.757812 -1.445312 12.78125 -1 C 12.8125 -0.5625 12.972656 -0.226562 13.265625 0 C 12.648438 0.0703125 12.097656 0.207031 11.609375 0.40625 C 11.609375 0.132812 11.609375 -0.210938 11.609375 -0.640625 C 11.609375 -1.078125 11.601562 -1.523438 11.59375 -1.984375 C 11.59375 -2.441406 11.59375 -2.84375 11.59375 -3.1875 C 11.425781 -2.863281 11.175781 -2.5 10.84375 -2.09375 C 10.507812 -1.6875 10.113281 -1.289062 9.65625 -0.90625 C 9.195312 -0.53125 8.679688 -0.21875 8.109375 0.03125 C 7.535156 0.28125 6.925781 0.40625 6.28125 0.40625 C 4.644531 0.40625 3.429688 -0.0390625 2.640625 -0.9375 C 1.847656 -1.84375 1.453125 -2.96875 1.453125 -4.3125 Z M 1.453125 -8.1875 "/></g></g></g><g fill="#0e675b" fill-opacity="1"><g transform="translate(128.097759, 60.186235)"><g><path d="M 0.9375 -10.78125 C 1.550781 -10.851562 2.101562 -10.988281 2.59375 -11.1875 C 2.59375 -10.789062 2.59375 -10.269531 2.59375 -9.625 C 2.601562 -8.976562 2.609375 -8.394531 2.609375 -7.875 C 2.753906 -8.320312 3.046875 -8.800781 3.484375 -9.3125 C 3.929688 -9.820312 4.515625 -10.257812 5.234375 -10.625 C 5.953125 -11 6.773438 -11.1875 7.703125 -11.1875 C 8.742188 -11.1875 9.585938 -11.117188 10.234375 -10.984375 C 10.890625 -10.847656 11.21875 -10.78125 11.21875 -10.78125 L 11.21875 -8.890625 C 10.820312 -9.535156 10.265625 -9.976562 9.546875 -10.21875 C 8.828125 -10.46875 8.160156 -10.59375 7.546875 -10.59375 C 6.597656 -10.59375 5.75 -10.410156 5 -10.046875 C 4.25 -9.691406 3.660156 -9.191406 3.234375 -8.546875 C 2.816406 -7.910156 2.609375 -7.164062 2.609375 -6.3125 L 2.609375 -2.59375 C 2.609375 -2.082031 2.625 -1.59375 2.65625 -1.125 C 2.6875 -0.664062 2.84375 -0.289062 3.125 0 L 0.9375 0 C 1.226562 -0.289062 1.382812 -0.664062 1.40625 -1.125 C 1.4375 -1.59375 1.453125 -2.082031 1.453125 -2.59375 L 1.453125 -8.1875 C 1.453125 -8.820312 1.4375 -9.351562 1.40625 -9.78125 C 1.382812 -10.21875 1.226562 -10.550781 0.9375 -10.78125 Z M 0.9375 -10.78125 "/></g></g></g><g fill="#0e675b" fill-opacity="1"><g transform="translate(140.251567, 60.186235)"><g><path d="M 1.453125 -7.703125 C 1.453125 -8.566406 1.4375 -9.238281 1.40625 -9.71875 C 1.382812 -10.195312 1.226562 -10.550781 0.9375 -10.78125 C 1.550781 -10.851562 2.101562 -10.988281 2.59375 -11.1875 C 2.59375 -10.9375 2.59375 -10.585938 2.59375 -10.140625 C 2.601562 -9.703125 2.609375 -9.253906 2.609375 -8.796875 C 2.609375 -8.335938 2.609375 -7.9375 2.609375 -7.59375 L 2.609375 -2.59375 C 2.609375 -2.082031 2.625 -1.59375 2.65625 -1.125 C 2.6875 -0.664062 2.84375 -0.289062 3.125 0 L 0.9375 0 C 1.226562 -0.289062 1.382812 -0.664062 1.40625 -1.125 C 1.4375 -1.59375 1.453125 -2.082031 1.453125 -2.59375 Z M 1.90625 -12.078125 C 1.644531 -12.078125 1.414062 -12.144531 1.21875 -12.28125 C 1.03125 -12.425781 0.9375 -12.59375 0.9375 -12.78125 C 0.9375 -12.976562 1.03125 -13.144531 1.21875 -13.28125 C 1.414062 -13.414062 1.644531 -13.484375 1.90625 -13.484375 C 2.175781 -13.484375 2.40625 -13.414062 2.59375 -13.28125 C 2.789062 -13.144531 2.890625 -12.976562 2.890625 -12.78125 C 2.890625 -12.59375 2.789062 -12.425781 2.59375 -12.28125 C 2.40625 -12.144531 2.175781 -12.078125 1.90625 -12.078125 Z M 1.90625 -12.078125 "/></g></g></g><g fill="#0e675b" fill-opacity="1"><g transform="translate(144.320803, 60.186235)"><g><path d="M 0.9375 -18.171875 C 0.9375 -18.398438 1.03125 -18.570312 1.21875 -18.6875 C 1.414062 -18.8125 1.644531 -18.875 1.90625 -18.875 C 2.125 -18.875 2.316406 -18.828125 2.484375 -18.734375 C 2.660156 -18.640625 2.785156 -18.492188 2.859375 -18.296875 C 2.941406 -18.023438 2.929688 -17.695312 2.828125 -17.3125 C 2.722656 -16.925781 2.53125 -16.613281 2.25 -16.375 C 1.96875 -16.132812 1.601562 -16.066406 1.15625 -16.171875 C 1.625 -16.222656 1.9375 -16.390625 2.09375 -16.671875 C 2.257812 -16.960938 2.296875 -17.238281 2.203125 -17.5 C 2.140625 -17.476562 2.039062 -17.46875 1.90625 -17.46875 C 1.644531 -17.46875 1.414062 -17.523438 1.21875 -17.640625 C 1.03125 -17.753906 0.9375 -17.929688 0.9375 -18.171875 Z M 0.9375 -18.171875 "/></g></g></g><g fill="#0e675b" fill-opacity="1"><g transform="translate(148.201399, 60.186235)"><g><path d="M 11.234375 -18.96875 C 9.671875 -18.96875 8.3125 -18.703125 7.15625 -18.171875 C 6 -17.648438 5.046875 -16.9375 4.296875 -16.03125 C 3.554688 -15.132812 3.015625 -14.128906 2.671875 -13.015625 C 2.328125 -11.898438 2.175781 -10.75 2.21875 -9.5625 C 2.269531 -8.382812 2.507812 -7.238281 2.9375 -6.125 C 3.363281 -5.007812 3.984375 -4 4.796875 -3.09375 C 5.609375 -2.195312 6.601562 -1.488281 7.78125 -0.96875 C 8.957031 -0.445312 10.316406 -0.1875 11.859375 -0.1875 C 13.191406 -0.1875 14.40625 -0.457031 15.5 -1 C 16.59375 -1.539062 17.515625 -2.300781 18.265625 -3.28125 C 19.023438 -4.257812 19.550781 -5.382812 19.84375 -6.65625 L 20.453125 -6.65625 C 20.078125 -5.3125 19.441406 -4.109375 18.546875 -3.046875 C 17.660156 -1.984375 16.570312 -1.144531 15.28125 -0.53125 C 13.988281 0.0703125 12.523438 0.382812 10.890625 0.40625 C 9.398438 0.40625 8.039062 0.148438 6.8125 -0.359375 C 5.59375 -0.867188 4.546875 -1.582031 3.671875 -2.5 C 2.804688 -3.414062 2.132812 -4.476562 1.65625 -5.6875 C 1.175781 -6.894531 0.9375 -8.179688 0.9375 -9.546875 C 0.9375 -10.910156 1.175781 -12.179688 1.65625 -13.359375 C 2.132812 -14.546875 2.804688 -15.582031 3.671875 -16.46875 C 4.546875 -17.363281 5.59375 -18.0625 6.8125 -18.5625 C 8.039062 -19.070312 9.398438 -19.316406 10.890625 -19.296875 C 12.703125 -19.273438 14.234375 -19.09375 15.484375 -18.75 C 16.734375 -18.414062 17.691406 -17.988281 18.359375 -17.46875 L 17.59375 -16.25 C 17.144531 -16.664062 16.601562 -17.078125 15.96875 -17.484375 C 15.332031 -17.898438 14.617188 -18.25 13.828125 -18.53125 C 13.035156 -18.820312 12.171875 -18.96875 11.234375 -18.96875 Z M 11.234375 -18.96875 "/></g></g></g><g fill="#0e675b" fill-opacity="1"><g transform="translate(169.598573, 60.186235)"><g><path d="M 0.9375 -18.875 C 1.550781 -18.9375 2.101562 -19.066406 2.59375 -19.265625 C 2.59375 -19.015625 2.59375 -18.671875 2.59375 -18.234375 C 2.601562 -17.796875 2.609375 -17.347656 2.609375 -16.890625 C 2.609375 -16.429688 2.609375 -16.03125 2.609375 -15.6875 L 2.640625 -2.59375 C 2.640625 -2.082031 2.648438 -1.59375 2.671875 -1.125 C 2.703125 -0.664062 2.863281 -0.289062 3.15625 0 L 0.96875 0 C 1.257812 -0.289062 1.414062 -0.664062 1.4375 -1.125 C 1.46875 -1.59375 1.484375 -2.082031 1.484375 -2.59375 L 1.453125 -13.90625 L 1.453125 -15.796875 C 1.453125 -16.660156 1.4375 -17.328125 1.40625 -17.796875 C 1.382812 -18.273438 1.226562 -18.632812 0.9375 -18.875 Z M 0.9375 -18.875 "/></g></g></g><g fill="#0e675b" fill-opacity="1"><g transform="translate(173.694763, 60.186235)"><g><path d="M 4.46875 0.40625 C 3.375 0.40625 2.507812 0.101562 1.875 -0.5 C 1.25 -1.113281 0.9375 -1.851562 0.9375 -2.71875 C 0.9375 -3.507812 1.132812 -4.164062 1.53125 -4.6875 C 1.925781 -5.207031 2.457031 -5.640625 3.125 -5.984375 C 3.789062 -6.328125 4.535156 -6.601562 5.359375 -6.8125 C 6.191406 -7.03125 7.035156 -7.21875 7.890625 -7.375 C 8.753906 -7.539062 9.582031 -7.710938 10.375 -7.890625 C 10.613281 -7.953125 10.828125 -8.046875 11.015625 -8.171875 C 11.203125 -8.304688 11.296875 -8.457031 11.296875 -8.625 C 11.296875 -8.789062 11.179688 -8.929688 10.953125 -9.046875 C 10.734375 -9.160156 10.441406 -9.21875 10.078125 -9.21875 C 9.734375 -9.21875 9.34375 -9.128906 8.90625 -8.953125 C 8.46875 -8.785156 7.984375 -8.585938 7.453125 -8.359375 C 6.921875 -8.140625 6.351562 -7.945312 5.75 -7.78125 C 5.15625 -7.625 4.523438 -7.5625 3.859375 -7.59375 C 3.296875 -7.632812 2.828125 -7.804688 2.453125 -8.109375 C 2.085938 -8.421875 1.90625 -8.78125 1.90625 -9.1875 C 1.90625 -9.1875 1.921875 -9.285156 1.953125 -9.484375 C 1.992188 -9.679688 2.125 -9.914062 2.34375 -10.1875 C 2.5625 -10.457031 2.9375 -10.691406 3.46875 -10.890625 C 4 -11.085938 4.753906 -11.1875 5.734375 -11.1875 C 7.265625 -11.1875 8.53125 -10.957031 9.53125 -10.5 C 10.53125 -10.039062 11.273438 -9.4375 11.765625 -8.6875 C 12.253906 -7.945312 12.5 -7.132812 12.5 -6.25 L 12.5 -2.59375 C 12.5 -1.976562 12.515625 -1.445312 12.546875 -1 C 12.585938 -0.5625 12.753906 -0.226562 13.046875 0 C 12.722656 0.03125 12.425781 0.0820312 12.15625 0.15625 C 11.882812 0.226562 11.625 0.3125 11.375 0.40625 C 11.375 0.132812 11.375 -0.210938 11.375 -0.640625 C 11.375 -1.078125 11.367188 -1.523438 11.359375 -1.984375 C 11.347656 -2.441406 11.34375 -2.84375 11.34375 -3.1875 L 11.34375 -3.203125 C 10.988281 -2.753906 10.46875 -2.242188 9.78125 -1.671875 C 9.101562 -1.109375 8.304688 -0.617188 7.390625 -0.203125 C 6.484375 0.203125 5.507812 0.40625 4.46875 0.40625 Z M 5.53125 -6.546875 C 4.539062 -6.222656 3.734375 -5.78125 3.109375 -5.21875 C 2.492188 -4.664062 2.1875 -3.90625 2.1875 -2.9375 C 2.1875 -2.519531 2.269531 -2.082031 2.4375 -1.625 C 2.613281 -1.164062 2.898438 -0.78125 3.296875 -0.46875 C 3.703125 -0.15625 4.238281 0 4.90625 0 C 5.550781 0 6.242188 -0.132812 6.984375 -0.40625 C 7.722656 -0.675781 8.421875 -1.039062 9.078125 -1.5 C 9.742188 -1.957031 10.285156 -2.46875 10.703125 -3.03125 C 11.128906 -3.59375 11.34375 -4.171875 11.34375 -4.765625 L 11.34375 -7.984375 L 11.296875 -7.984375 C 11.222656 -7.921875 11.113281 -7.863281 10.96875 -7.8125 C 10.820312 -7.757812 10.660156 -7.707031 10.484375 -7.65625 C 9.816406 -7.457031 9.03125 -7.289062 8.125 -7.15625 C 7.21875 -7.019531 6.351562 -6.816406 5.53125 -6.546875 Z M 5.765625 -10.890625 C 4.796875 -10.890625 4.117188 -10.71875 3.734375 -10.375 C 3.347656 -10.03125 3.164062 -9.65625 3.1875 -9.25 C 3.195312 -8.738281 3.378906 -8.398438 3.734375 -8.234375 C 4.085938 -8.078125 4.453125 -8 4.828125 -8 C 5.453125 -8 6.070312 -8.125 6.6875 -8.375 C 7.3125 -8.632812 7.90625 -8.882812 8.46875 -9.125 C 9.039062 -9.363281 9.566406 -9.484375 10.046875 -9.484375 C 10.234375 -9.484375 10.429688 -9.46875 10.640625 -9.4375 C 10.242188 -9.84375 9.597656 -10.1875 8.703125 -10.46875 C 7.804688 -10.75 6.828125 -10.890625 5.765625 -10.890625 Z M 5.765625 -10.890625 "/></g></g></g><g fill="#0e675b" fill-opacity="1"><g transform="translate(187.681079, 60.186235)"><g><path d="M 1.453125 -7.703125 C 1.453125 -8.566406 1.4375 -9.238281 1.40625 -9.71875 C 1.382812 -10.195312 1.226562 -10.550781 0.9375 -10.78125 C 1.550781 -10.851562 2.101562 -10.988281 2.59375 -11.1875 C 2.59375 -10.9375 2.59375 -10.585938 2.59375 -10.140625 C 2.601562 -9.703125 2.609375 -9.253906 2.609375 -8.796875 C 2.609375 -8.335938 2.609375 -7.9375 2.609375 -7.59375 L 2.609375 -2.59375 C 2.609375 -2.082031 2.625 -1.59375 2.65625 -1.125 C 2.6875 -0.664062 2.84375 -0.289062 3.125 0 L 0.9375 0 C 1.226562 -0.289062 1.382812 -0.664062 1.40625 -1.125 C 1.4375 -1.59375 1.453125 -2.082031 1.453125 -2.59375 Z M 1.90625 -12.078125 C 1.644531 -12.078125 1.414062 -12.144531 1.21875 -12.28125 C 1.03125 -12.425781 0.9375 -12.59375 0.9375 -12.78125 C 0.9375 -12.976562 1.03125 -13.144531 1.21875 -13.28125 C 1.414062 -13.414062 1.644531 -13.484375 1.90625 -13.484375 C 2.175781 -13.484375 2.40625 -13.414062 2.59375 -13.28125 C 2.789062 -13.144531 2.890625 -12.976562 2.890625 -12.78125 C 2.890625 -12.59375 2.789062 -12.425781 2.59375 -12.28125 C 2.40625 -12.144531 2.175781 -12.078125 1.90625 -12.078125 Z M 1.90625 -12.078125 "/></g></g></g><g fill="#0e675b" fill-opacity="1"><g transform="translate(191.750315, 60.186235)"><g><path d="M 0.9375 -10.78125 C 1.550781 -10.851562 2.101562 -10.988281 2.59375 -11.1875 C 2.59375 -10.789062 2.59375 -10.269531 2.59375 -9.625 C 2.601562 -8.976562 2.609375 -8.394531 2.609375 -7.875 C 2.753906 -8.320312 3.046875 -8.800781 3.484375 -9.3125 C 3.929688 -9.820312 4.515625 -10.257812 5.234375 -10.625 C 5.953125 -11 6.773438 -11.1875 7.703125 -11.1875 C 8.742188 -11.1875 9.585938 -11.117188 10.234375 -10.984375 C 10.890625 -10.847656 11.21875 -10.78125 11.21875 -10.78125 L 11.21875 -8.890625 C 10.820312 -9.535156 10.265625 -9.976562 9.546875 -10.21875 C 8.828125 -10.46875 8.160156 -10.59375 7.546875 -10.59375 C 6.597656 -10.59375 5.75 -10.410156 5 -10.046875 C 4.25 -9.691406 3.660156 -9.191406 3.234375 -8.546875 C 2.816406 -7.910156 2.609375 -7.164062 2.609375 -6.3125 L 2.609375 -2.59375 C 2.609375 -2.082031 2.625 -1.59375 2.65625 -1.125 C 2.6875 -0.664062 2.84375 -0.289062 3.125 0 L 0.9375 0 C 1.226562 -0.289062 1.382812 -0.664062 1.40625 -1.125 C 1.4375 -1.59375 1.453125 -2.082031 1.453125 -2.59375 L 1.453125 -8.1875 C 1.453125 -8.820312 1.4375 -9.351562 1.40625 -9.78125 C 1.382812 -10.21875 1.226562 -10.550781 0.9375 -10.78125 Z M 0.9375 -10.78125 "/></g></g></g><g fill="#0e675b" fill-opacity="1"><g transform="translate(203.904123, 60.186235)"><g><path d="M 0.9375 -5.390625 C 0.9375 -6.554688 1.21875 -7.570312 1.78125 -8.4375 C 2.351562 -9.300781 3.117188 -9.972656 4.078125 -10.453125 C 5.046875 -10.941406 6.117188 -11.1875 7.296875 -11.1875 C 8.273438 -11.1875 9.164062 -11 9.96875 -10.625 C 10.78125 -10.257812 11.425781 -9.765625 11.90625 -9.140625 C 12.394531 -8.523438 12.640625 -7.832031 12.640625 -7.0625 C 12.640625 -6.769531 12.5625 -6.425781 12.40625 -6.03125 C 12.257812 -5.632812 11.992188 -5.289062 11.609375 -5 C 11.222656 -4.707031 10.660156 -4.5625 9.921875 -4.5625 C 9.421875 -4.5625 8.96875 -4.640625 8.5625 -4.796875 C 8.15625 -4.960938 7.757812 -5.117188 7.375 -5.265625 C 6.988281 -5.421875 6.550781 -5.5 6.0625 -5.5 C 5.394531 -5.5 4.863281 -5.300781 4.46875 -4.90625 C 4.070312 -4.507812 3.875 -3.96875 3.875 -3.28125 C 3.875 -2.75 4.050781 -2.238281 4.40625 -1.75 C 4.757812 -1.269531 5.210938 -0.875 5.765625 -0.5625 C 6.328125 -0.257812 6.910156 -0.109375 7.515625 -0.109375 C 8.503906 -0.109375 9.347656 -0.273438 10.046875 -0.609375 C 10.753906 -0.941406 11.40625 -1.546875 12 -2.421875 L 12.234375 -2.203125 C 11.679688 -1.429688 10.988281 -0.800781 10.15625 -0.3125 C 9.332031 0.164062 8.363281 0.40625 7.25 0.40625 C 6.0625 0.40625 4.988281 0.164062 4.03125 -0.3125 C 3.082031 -0.800781 2.328125 -1.484375 1.765625 -2.359375 C 1.210938 -3.234375 0.9375 -4.242188 0.9375 -5.390625 Z M 7.296875 -10.890625 C 6.398438 -10.890625 5.539062 -10.710938 4.71875 -10.359375 C 3.894531 -10.015625 3.21875 -9.484375 2.6875 -8.765625 C 2.164062 -8.054688 1.914062 -7.175781 1.9375 -6.125 C 1.976562 -4.96875 2.265625 -3.882812 2.796875 -2.875 C 3.335938 -1.875 4.078125 -1.113281 5.015625 -0.59375 C 4.617188 -0.9375 4.273438 -1.335938 3.984375 -1.796875 C 3.703125 -2.253906 3.5625 -2.757812 3.5625 -3.3125 C 3.5625 -4.144531 3.800781 -4.765625 4.28125 -5.171875 C 4.769531 -5.585938 5.363281 -5.796875 6.0625 -5.796875 C 6.5625 -5.796875 7.117188 -5.734375 7.734375 -5.609375 C 8.359375 -5.484375 8.941406 -5.421875 9.484375 -5.421875 C 10.046875 -5.421875 10.515625 -5.550781 10.890625 -5.8125 C 11.265625 -6.070312 11.453125 -6.585938 11.453125 -7.359375 C 11.453125 -8.003906 11.273438 -8.597656 10.921875 -9.140625 C 10.578125 -9.679688 10.085938 -10.109375 9.453125 -10.421875 C 8.828125 -10.734375 8.109375 -10.890625 7.296875 -10.890625 Z M 7.296875 -10.890625 "/></g></g></g><g fill="#0e675b" fill-opacity="1"><g transform="translate(217.486216, 60.186235)"><g/></g></g><g fill="#0e675b" fill-opacity="1"><g transform="translate(224.223359, 60.186235)"><g><path d="M 0.9375 -18.875 L 12.3125 -18.875 C 12.53125 -18.875 12.84375 -18.847656 13.25 -18.796875 C 13.65625 -18.753906 14.097656 -18.660156 14.578125 -18.515625 C 15.066406 -18.367188 15.523438 -18.144531 15.953125 -17.84375 C 16.390625 -17.550781 16.742188 -17.164062 17.015625 -16.6875 C 17.296875 -16.21875 17.4375 -15.613281 17.4375 -14.875 C 17.4375 -13.851562 17.175781 -13.035156 16.65625 -12.421875 C 16.132812 -11.816406 15.476562 -11.375 14.6875 -11.09375 C 13.894531 -10.8125 13.097656 -10.671875 12.296875 -10.671875 L 5.4375 -10.671875 C 6.300781 -10.390625 7.101562 -9.9375 7.84375 -9.3125 C 8.59375 -8.6875 9.296875 -7.988281 9.953125 -7.21875 C 10.609375 -6.445312 11.234375 -5.660156 11.828125 -4.859375 C 12.421875 -4.066406 12.988281 -3.328125 13.53125 -2.640625 C 14.070312 -1.960938 14.585938 -1.414062 15.078125 -1 C 15.578125 -0.582031 16.066406 -0.375 16.546875 -0.375 C 17.117188 -0.375 17.46875 -0.441406 17.59375 -0.578125 C 17.726562 -0.710938 17.796875 -0.78125 17.796875 -0.78125 C 17.878906 -0.488281 17.765625 -0.21875 17.453125 0.03125 C 17.148438 0.28125 16.734375 0.40625 16.203125 0.40625 C 15.460938 0.40625 14.75 0.140625 14.0625 -0.390625 C 13.382812 -0.921875 12.71875 -1.609375 12.0625 -2.453125 C 11.40625 -3.296875 10.738281 -4.1875 10.0625 -5.125 C 9.394531 -6.070312 8.707031 -6.96875 8 -7.8125 C 7.300781 -8.65625 6.566406 -9.34375 5.796875 -9.875 C 5.023438 -10.40625 4.195312 -10.671875 3.3125 -10.671875 L 2.609375 -10.671875 L 2.609375 -2.59375 C 2.609375 -2.082031 2.625 -1.59375 2.65625 -1.125 C 2.6875 -0.664062 2.84375 -0.289062 3.125 0 L 0.9375 0 C 1.226562 -0.289062 1.382812 -0.664062 1.40625 -1.125 C 1.4375 -1.59375 1.453125 -2.082031 1.453125 -2.59375 L 1.453125 -16.28125 C 1.453125 -16.800781 1.4375 -17.289062 1.40625 -17.75 C 1.382812 -18.207031 1.226562 -18.582031 0.9375 -18.875 Z M 11.15625 -18.578125 L 2.609375 -18.578125 L 2.609375 -11 L 11.125 -11 C 11.9375 -11 12.738281 -11.128906 13.53125 -11.390625 C 14.320312 -11.648438 14.976562 -12.066406 15.5 -12.640625 C 16.019531 -13.210938 16.28125 -13.976562 16.28125 -14.9375 C 16.28125 -15.613281 16.140625 -16.171875 15.859375 -16.609375 C 15.578125 -17.054688 15.222656 -17.410156 14.796875 -17.671875 C 14.367188 -17.929688 13.910156 -18.128906 13.421875 -18.265625 C 12.929688 -18.398438 12.484375 -18.484375 12.078125 -18.515625 C 11.679688 -18.554688 11.375 -18.578125 11.15625 -18.578125 Z M 11.15625 -18.578125 "/></g></g></g><g fill="#0e675b" fill-opacity="1"><g transform="translate(242.494505, 60.186235)"><g><path d="M 0.9375 -5.390625 C 0.9375 -6.554688 1.21875 -7.570312 1.78125 -8.4375 C 2.351562 -9.300781 3.117188 -9.972656 4.078125 -10.453125 C 5.046875 -10.941406 6.117188 -11.1875 7.296875 -11.1875 C 8.273438 -11.1875 9.164062 -11 9.96875 -10.625 C 10.78125 -10.257812 11.425781 -9.765625 11.90625 -9.140625 C 12.394531 -8.523438 12.640625 -7.832031 12.640625 -7.0625 C 12.640625 -6.769531 12.5625 -6.425781 12.40625 -6.03125 C 12.257812 -5.632812 11.992188 -5.289062 11.609375 -5 C 11.222656 -4.707031 10.660156 -4.5625 9.921875 -4.5625 C 9.421875 -4.5625 8.96875 -4.640625 8.5625 -4.796875 C 8.15625 -4.960938 7.757812 -5.117188 7.375 -5.265625 C 6.988281 -5.421875 6.550781 -5.5 6.0625 -5.5 C 5.394531 -5.5 4.863281 -5.300781 4.46875 -4.90625 C 4.070312 -4.507812 3.875 -3.96875 3.875 -3.28125 C 3.875 -2.75 4.050781 -2.238281 4.40625 -1.75 C 4.757812 -1.269531 5.210938 -0.875 5.765625 -0.5625 C 6.328125 -0.257812 6.910156 -0.109375 7.515625 -0.109375 C 8.503906 -0.109375 9.347656 -0.273438 10.046875 -0.609375 C 10.753906 -0.941406 11.40625 -1.546875 12 -2.421875 L 12.234375 -2.203125 C 11.679688 -1.429688 10.988281 -0.800781 10.15625 -0.3125 C 9.332031 0.164062 8.363281 0.40625 7.25 0.40625 C 6.0625 0.40625 4.988281 0.164062 4.03125 -0.3125 C 3.082031 -0.800781 2.328125 -1.484375 1.765625 -2.359375 C 1.210938 -3.234375 0.9375 -4.242188 0.9375 -5.390625 Z M 7.296875 -10.890625 C 6.398438 -10.890625 5.539062 -10.710938 4.71875 -10.359375 C 3.894531 -10.015625 3.21875 -9.484375 2.6875 -8.765625 C 2.164062 -8.054688 1.914062 -7.175781 1.9375 -6.125 C 1.976562 -4.96875 2.265625 -3.882812 2.796875 -2.875 C 3.335938 -1.875 4.078125 -1.113281 5.015625 -0.59375 C 4.617188 -0.9375 4.273438 -1.335938 3.984375 -1.796875 C 3.703125 -2.253906 3.5625 -2.757812 3.5625 -3.3125 C 3.5625 -4.144531 3.800781 -4.765625 4.28125 -5.171875 C 4.769531 -5.585938 5.363281 -5.796875 6.0625 -5.796875 C 6.5625 -5.796875 7.117188 -5.734375 7.734375 -5.609375 C 8.359375 -5.484375 8.941406 -5.421875 9.484375 -5.421875 C 10.046875 -5.421875 10.515625 -5.550781 10.890625 -5.8125 C 11.265625 -6.070312 11.453125 -6.585938 11.453125 -7.359375 C 11.453125 -8.003906 11.273438 -8.597656 10.921875 -9.140625 C 10.578125 -9.679688 10.085938 -10.109375 9.453125 -10.421875 C 8.828125 -10.734375 8.109375 -10.890625 7.296875 -10.890625 Z M 5.34375 -12.265625 C 5.207031 -12.359375 5.171875 -12.4375 5.234375 -12.5 C 5.304688 -12.570312 5.375 -12.566406 5.4375 -12.484375 C 5.550781 -12.367188 5.695312 -12.300781 5.875 -12.28125 C 6.050781 -12.269531 6.222656 -12.265625 6.390625 -12.265625 C 6.941406 -12.265625 7.367188 -12.367188 7.671875 -12.578125 C 7.984375 -12.785156 8.226562 -12.992188 8.40625 -13.203125 C 8.582031 -13.421875 8.753906 -13.53125 8.921875 -13.53125 C 9.140625 -13.53125 9.25 -13.429688 9.25 -13.234375 C 9.25 -13.035156 9.117188 -12.835938 8.859375 -12.640625 C 8.609375 -12.441406 8.285156 -12.285156 7.890625 -12.171875 C 7.492188 -12.054688 7.09375 -12 6.6875 -12 C 6.445312 -12 6.207031 -12.007812 5.96875 -12.03125 C 5.726562 -12.0625 5.519531 -12.140625 5.34375 -12.265625 Z M 5.34375 -12.265625 "/></g></g></g><g fill="#0e675b" fill-opacity="1"><g transform="translate(256.076598, 60.186235)"><g><path d="M 3.125 0 L 0.9375 0 C 1.226562 -0.289062 1.382812 -0.664062 1.40625 -1.125 C 1.4375 -1.59375 1.453125 -2.082031 1.453125 -2.59375 L 1.421875 -11.703125 C 1.421875 -13.078125 1.617188 -14.25 2.015625 -15.21875 C 2.410156 -16.195312 2.9375 -16.984375 3.59375 -17.578125 C 4.25 -18.171875 4.984375 -18.597656 5.796875 -18.859375 C 6.617188 -19.128906 7.453125 -19.265625 8.296875 -19.265625 C 9.140625 -19.265625 9.835938 -19.203125 10.390625 -19.078125 C 10.941406 -18.953125 11.46875 -18.753906 11.96875 -18.484375 L 11.96875 -16.765625 C 11.644531 -17.335938 11.203125 -17.847656 10.640625 -18.296875 C 10.085938 -18.742188 9.304688 -18.96875 8.296875 -18.96875 C 7.328125 -18.96875 6.40625 -18.785156 5.53125 -18.421875 C 4.664062 -18.066406 3.957031 -17.476562 3.40625 -16.65625 C 2.863281 -15.832031 2.59375 -14.71875 2.59375 -13.3125 L 2.59375 -10.78125 L 6.953125 -10.78125 C 7.492188 -10.78125 7.972656 -10.800781 8.390625 -10.84375 C 8.816406 -10.894531 9.21875 -11.007812 9.59375 -11.1875 L 9.59375 -10.078125 C 9.21875 -10.253906 8.816406 -10.363281 8.390625 -10.40625 C 7.972656 -10.457031 7.492188 -10.484375 6.953125 -10.484375 L 2.59375 -10.484375 L 2.59375 -7.546875 L 2.609375 -2.59375 C 2.609375 -2.082031 2.625 -1.59375 2.65625 -1.125 C 2.6875 -0.664062 2.84375 -0.289062 3.125 0 Z M 3.125 0 "/></g></g></g><g fill="#0e675b" fill-opacity="1"><g transform="translate(268.984975, 60.186235)"><g><path d="M 0.9375 -18.875 C 1.550781 -18.9375 2.101562 -19.066406 2.59375 -19.265625 C 2.59375 -19.015625 2.59375 -18.671875 2.59375 -18.234375 C 2.601562 -17.796875 2.609375 -17.347656 2.609375 -16.890625 C 2.609375 -16.429688 2.609375 -16.03125 2.609375 -15.6875 L 2.640625 -2.59375 C 2.640625 -2.082031 2.648438 -1.59375 2.671875 -1.125 C 2.703125 -0.664062 2.863281 -0.289062 3.15625 0 L 0.96875 0 C 1.257812 -0.289062 1.414062 -0.664062 1.4375 -1.125 C 1.46875 -1.59375 1.484375 -2.082031 1.484375 -2.59375 L 1.453125 -13.90625 L 1.453125 -15.796875 C 1.453125 -16.660156 1.4375 -17.328125 1.40625 -17.796875 C 1.382812 -18.273438 1.226562 -18.632812 0.9375 -18.875 Z M 0.9375 -18.875 "/></g></g></g><g fill="#0e675b" fill-opacity="1"><g transform="translate(273.081166, 60.186235)"><g><path d="M 0.9375 -5.390625 C 0.9375 -6.554688 1.21875 -7.570312 1.78125 -8.4375 C 2.351562 -9.300781 3.117188 -9.972656 4.078125 -10.453125 C 5.046875 -10.941406 6.117188 -11.1875 7.296875 -11.1875 C 8.273438 -11.1875 9.164062 -11 9.96875 -10.625 C 10.78125 -10.257812 11.425781 -9.765625 11.90625 -9.140625 C 12.394531 -8.523438 12.640625 -7.832031 12.640625 -7.0625 C 12.640625 -6.769531 12.5625 -6.425781 12.40625 -6.03125 C 12.257812 -5.632812 11.992188 -5.289062 11.609375 -5 C 11.222656 -4.707031 10.660156 -4.5625 9.921875 -4.5625 C 9.421875 -4.5625 8.96875 -4.640625 8.5625 -4.796875 C 8.15625 -4.960938 7.757812 -5.117188 7.375 -5.265625 C 6.988281 -5.421875 6.550781 -5.5 6.0625 -5.5 C 5.394531 -5.5 4.863281 -5.300781 4.46875 -4.90625 C 4.070312 -4.507812 3.875 -3.96875 3.875 -3.28125 C 3.875 -2.75 4.050781 -2.238281 4.40625 -1.75 C 4.757812 -1.269531 5.210938 -0.875 5.765625 -0.5625 C 6.328125 -0.257812 6.910156 -0.109375 7.515625 -0.109375 C 8.503906 -0.109375 9.347656 -0.273438 10.046875 -0.609375 C 10.753906 -0.941406 11.40625 -1.546875 12 -2.421875 L 12.234375 -2.203125 C 11.679688 -1.429688 10.988281 -0.800781 10.15625 -0.3125 C 9.332031 0.164062 8.363281 0.40625 7.25 0.40625 C 6.0625 0.40625 4.988281 0.164062 4.03125 -0.3125 C 3.082031 -0.800781 2.328125 -1.484375 1.765625 -2.359375 C 1.210938 -3.234375 0.9375 -4.242188 0.9375 -5.390625 Z M 7.296875 -10.890625 C 6.398438 -10.890625 5.539062 -10.710938 4.71875 -10.359375 C 3.894531 -10.015625 3.21875 -9.484375 2.6875 -8.765625 C 2.164062 -8.054688 1.914062 -7.175781 1.9375 -6.125 C 1.976562 -4.96875 2.265625 -3.882812 2.796875 -2.875 C 3.335938 -1.875 4.078125 -1.113281 5.015625 -0.59375 C 4.617188 -0.9375 4.273438 -1.335938 3.984375 -1.796875 C 3.703125 -2.253906 3.5625 -2.757812 3.5625 -3.3125 C 3.5625 -4.144531 3.800781 -4.765625 4.28125 -5.171875 C 4.769531 -5.585938 5.363281 -5.796875 6.0625 -5.796875 C 6.5625 -5.796875 7.117188 -5.734375 7.734375 -5.609375 C 8.359375 -5.484375 8.941406 -5.421875 9.484375 -5.421875 C 10.046875 -5.421875 10.515625 -5.550781 10.890625 -5.8125 C 11.265625 -6.070312 11.453125 -6.585938 11.453125 -7.359375 C 11.453125 -8.003906 11.273438 -8.597656 10.921875 -9.140625 C 10.578125 -9.679688 10.085938 -10.109375 9.453125 -10.421875 C 8.828125 -10.734375 8.109375 -10.890625 7.296875 -10.890625 Z M 7.296875 -10.890625 "/></g></g></g><g fill="#0e675b" fill-opacity="1"><g transform="translate(286.663259, 60.186235)"><g><path d="M 0.9375 0 C 1.25 -0.125 1.484375 -0.234375 1.640625 -0.328125 C 1.804688 -0.429688 1.976562 -0.570312 2.15625 -0.75 C 2.769531 -1.3125 3.300781 -1.8125 3.75 -2.25 C 4.195312 -2.6875 4.648438 -3.128906 5.109375 -3.578125 C 5.566406 -4.035156 6.09375 -4.550781 6.6875 -5.125 C 6.21875 -5.625 5.78125 -6.082031 5.375 -6.5 C 4.96875 -6.925781 4.546875 -7.378906 4.109375 -7.859375 C 3.671875 -8.347656 3.15625 -8.914062 2.5625 -9.5625 C 2.414062 -9.726562 2.222656 -9.925781 1.984375 -10.15625 C 1.753906 -10.394531 1.503906 -10.601562 1.234375 -10.78125 L 3.421875 -10.78125 C 3.390625 -10.675781 3.398438 -10.5625 3.453125 -10.4375 C 3.503906 -10.3125 3.578125 -10.191406 3.671875 -10.078125 C 4.390625 -9.253906 5.066406 -8.507812 5.703125 -7.84375 C 6.335938 -7.175781 6.953125 -6.53125 7.546875 -5.90625 C 8.585938 -6.875 9.398438 -7.640625 9.984375 -8.203125 C 10.566406 -8.773438 11 -9.25 11.28125 -9.625 C 11.570312 -10 11.773438 -10.382812 11.890625 -10.78125 L 13.5625 -10.78125 C 13.269531 -10.65625 13.039062 -10.539062 12.875 -10.4375 C 12.71875 -10.34375 12.539062 -10.207031 12.34375 -10.03125 C 11.75 -9.46875 11.21875 -8.96875 10.75 -8.53125 C 10.28125 -8.09375 9.816406 -7.644531 9.359375 -7.1875 C 8.898438 -6.738281 8.378906 -6.226562 7.796875 -5.65625 C 8.253906 -5.15625 8.6875 -4.691406 9.09375 -4.265625 C 9.5 -3.847656 9.921875 -3.398438 10.359375 -2.921875 C 10.804688 -2.441406 11.320312 -1.875 11.90625 -1.21875 C 12.050781 -1.050781 12.238281 -0.847656 12.46875 -0.609375 C 12.707031 -0.378906 12.960938 -0.175781 13.234375 0 L 11.046875 0 C 11.085938 -0.101562 11.078125 -0.21875 11.015625 -0.34375 C 10.960938 -0.476562 10.894531 -0.597656 10.8125 -0.703125 C 10.09375 -1.523438 9.410156 -2.269531 8.765625 -2.9375 C 8.128906 -3.601562 7.523438 -4.234375 6.953125 -4.828125 C 5.929688 -3.859375 5.128906 -3.09375 4.546875 -2.53125 C 3.972656 -1.976562 3.550781 -1.519531 3.28125 -1.15625 C 3.019531 -0.800781 2.832031 -0.414062 2.71875 0 Z M 0.9375 0 "/></g></g></g><g fill="#0e675b" fill-opacity="1"><g transform="translate(301.161594, 60.186235)"><g><path d="M 7.25 0.40625 C 6.0625 0.40625 4.988281 0.164062 4.03125 -0.3125 C 3.082031 -0.800781 2.328125 -1.484375 1.765625 -2.359375 C 1.210938 -3.234375 0.9375 -4.242188 0.9375 -5.390625 C 0.9375 -6.554688 1.210938 -7.570312 1.765625 -8.4375 C 2.328125 -9.300781 3.085938 -9.972656 4.046875 -10.453125 C 5.015625 -10.941406 6.09375 -11.1875 7.28125 -11.1875 C 8.476562 -11.1875 9.546875 -10.941406 10.484375 -10.453125 C 11.421875 -9.972656 12.160156 -9.300781 12.703125 -8.4375 C 13.253906 -7.570312 13.53125 -6.554688 13.53125 -5.390625 C 13.53125 -4.242188 13.253906 -3.234375 12.703125 -2.359375 C 12.160156 -1.484375 11.414062 -0.800781 10.46875 -0.3125 C 9.53125 0.164062 8.457031 0.40625 7.25 0.40625 Z M 5.125 -10.484375 C 4.289062 -10.140625 3.609375 -9.601562 3.078125 -8.875 C 2.554688 -8.15625 2.234375 -7.320312 2.109375 -6.375 C 1.992188 -5.425781 2.144531 -4.453125 2.5625 -3.453125 C 3.03125 -2.296875 3.71875 -1.414062 4.625 -0.8125 C 5.53125 -0.21875 6.476562 0.078125 7.46875 0.078125 C 8.09375 0.078125 8.710938 -0.046875 9.328125 -0.296875 C 10.171875 -0.640625 10.859375 -1.171875 11.390625 -1.890625 C 11.921875 -2.617188 12.25 -3.457031 12.375 -4.40625 C 12.5 -5.363281 12.34375 -6.347656 11.90625 -7.359375 C 11.445312 -8.492188 10.757812 -9.359375 9.84375 -9.953125 C 8.9375 -10.554688 7.984375 -10.859375 6.984375 -10.859375 C 6.347656 -10.859375 5.726562 -10.734375 5.125 -10.484375 Z M 5.125 -10.484375 "/></g></g></g><g fill="#0e675b" fill-opacity="1"><g transform="translate(315.632997, 60.186235)"><g><path d="M 0.9375 -18.875 C 1.550781 -18.9375 2.101562 -19.066406 2.59375 -19.265625 C 2.59375 -19.015625 2.59375 -18.671875 2.59375 -18.234375 C 2.601562 -17.796875 2.609375 -17.347656 2.609375 -16.890625 C 2.609375 -16.429688 2.609375 -16.03125 2.609375 -15.6875 L 2.640625 -2.59375 C 2.640625 -2.082031 2.648438 -1.59375 2.671875 -1.125 C 2.703125 -0.664062 2.863281 -0.289062 3.15625 0 L 0.96875 0 C 1.257812 -0.289062 1.414062 -0.664062 1.4375 -1.125 C 1.46875 -1.59375 1.484375 -2.082031 1.484375 -2.59375 L 1.453125 -13.90625 L 1.453125 -15.796875 C 1.453125 -16.660156 1.4375 -17.328125 1.40625 -17.796875 C 1.382812 -18.273438 1.226562 -18.632812 0.9375 -18.875 Z M 0.9375 -18.875 "/></g></g></g><g fill="#0e675b" fill-opacity="1"><g transform="translate(319.7292, 60.186235)"><g><path d="M 7.25 0.40625 C 6.0625 0.40625 4.988281 0.164062 4.03125 -0.3125 C 3.082031 -0.800781 2.328125 -1.484375 1.765625 -2.359375 C 1.210938 -3.234375 0.9375 -4.242188 0.9375 -5.390625 C 0.9375 -6.554688 1.210938 -7.570312 1.765625 -8.4375 C 2.328125 -9.300781 3.085938 -9.972656 4.046875 -10.453125 C 5.015625 -10.941406 6.09375 -11.1875 7.28125 -11.1875 C 8.476562 -11.1875 9.546875 -10.941406 10.484375 -10.453125 C 11.421875 -9.972656 12.160156 -9.300781 12.703125 -8.4375 C 13.253906 -7.570312 13.53125 -6.554688 13.53125 -5.390625 C 13.53125 -4.242188 13.253906 -3.234375 12.703125 -2.359375 C 12.160156 -1.484375 11.414062 -0.800781 10.46875 -0.3125 C 9.53125 0.164062 8.457031 0.40625 7.25 0.40625 Z M 5.125 -10.484375 C 4.289062 -10.140625 3.609375 -9.601562 3.078125 -8.875 C 2.554688 -8.15625 2.234375 -7.320312 2.109375 -6.375 C 1.992188 -5.425781 2.144531 -4.453125 2.5625 -3.453125 C 3.03125 -2.296875 3.71875 -1.414062 4.625 -0.8125 C 5.53125 -0.21875 6.476562 0.078125 7.46875 0.078125 C 8.09375 0.078125 8.710938 -0.046875 9.328125 -0.296875 C 10.171875 -0.640625 10.859375 -1.171875 11.390625 -1.890625 C 11.921875 -2.617188 12.25 -3.457031 12.375 -4.40625 C 12.5 -5.363281 12.34375 -6.347656 11.90625 -7.359375 C 11.445312 -8.492188 10.757812 -9.359375 9.84375 -9.953125 C 8.9375 -10.554688 7.984375 -10.859375 6.984375 -10.859375 C 6.347656 -10.859375 5.726562 -10.734375 5.125 -10.484375 Z M 5.125 -10.484375 "/></g></g></g><g fill="#0e675b" fill-opacity="1"><g transform="translate(334.200579, 60.186235)"><g><path d="M 0.9375 2.984375 C 0.9375 2.328125 1.144531 1.8125 1.5625 1.4375 C 1.988281 1.070312 2.445312 0.890625 2.9375 0.890625 C 3.6875 0.890625 4.351562 1.035156 4.9375 1.328125 C 5.53125 1.628906 6.054688 1.976562 6.515625 2.375 C 6.984375 2.769531 7.40625 3.113281 7.78125 3.40625 C 8.164062 3.707031 8.53125 3.859375 8.875 3.859375 C 9.519531 3.859375 9.914062 3.71875 10.0625 3.4375 C 10.21875 3.15625 10.296875 2.875 10.296875 2.59375 C 10.296875 2.25 10.171875 1.890625 9.921875 1.515625 C 9.671875 1.148438 9.1875 0.828125 8.46875 0.546875 C 7.675781 0.429688 6.988281 0.300781 6.40625 0.15625 C 5.820312 0.0195312 5.53125 -0.242188 5.53125 -0.640625 C 5.53125 -0.785156 5.597656 -0.9375 5.734375 -1.09375 C 5.878906 -1.257812 6.078125 -1.378906 6.328125 -1.453125 C 4.804688 -1.648438 3.554688 -2.179688 2.578125 -3.046875 C 1.609375 -3.910156 1.125 -4.988281 1.125 -6.28125 C 1.125 -7.269531 1.40625 -8.128906 1.96875 -8.859375 C 2.539062 -9.585938 3.316406 -10.15625 4.296875 -10.5625 C 5.273438 -10.976562 6.375 -11.1875 7.59375 -11.1875 C 7.851562 -11.1875 8.113281 -11.171875 8.375 -11.140625 C 8.644531 -11.117188 8.898438 -11.097656 9.140625 -11.078125 C 9.835938 -11.046875 10.40625 -11.078125 10.84375 -11.171875 C 11.289062 -11.273438 11.644531 -11.40625 11.90625 -11.5625 C 12.175781 -11.726562 12.40625 -11.875 12.59375 -12 C 12.789062 -12.125 12.992188 -12.1875 13.203125 -12.1875 C 13.347656 -12.1875 13.453125 -12.144531 13.515625 -12.0625 C 13.578125 -11.976562 13.609375 -11.894531 13.609375 -11.8125 C 13.609375 -11.570312 13.488281 -11.378906 13.25 -11.234375 C 13.007812 -11.097656 12.703125 -11 12.328125 -10.9375 C 11.960938 -10.882812 11.585938 -10.851562 11.203125 -10.84375 C 10.816406 -10.832031 10.46875 -10.828125 10.15625 -10.828125 C 11.320312 -10.492188 12.269531 -9.929688 13 -9.140625 C 13.726562 -8.347656 14.09375 -7.394531 14.09375 -6.28125 C 14.09375 -5.3125 13.8125 -4.457031 13.25 -3.71875 C 12.6875 -2.976562 11.914062 -2.398438 10.9375 -1.984375 C 9.96875 -1.578125 8.863281 -1.375 7.625 -1.375 C 7.5 -1.375 7.367188 -1.375 7.234375 -1.375 C 7.097656 -1.375 6.96875 -1.382812 6.84375 -1.40625 C 6.320312 -1.21875 6.0625 -0.984375 6.0625 -0.703125 C 6.0625 -0.410156 6.265625 -0.195312 6.671875 -0.0625 C 7.078125 0.0703125 7.597656 0.171875 8.234375 0.234375 C 8.867188 0.304688 9.546875 0.394531 10.265625 0.5 C 10.984375 0.613281 11.660156 0.800781 12.296875 1.0625 C 12.941406 1.320312 13.460938 1.695312 13.859375 2.1875 C 14.265625 2.6875 14.46875 3.367188 14.46875 4.234375 C 14.46875 5.097656 14.273438 5.789062 13.890625 6.3125 C 13.503906 6.84375 13.023438 7.253906 12.453125 7.546875 C 11.878906 7.835938 11.300781 8.035156 10.71875 8.140625 C 10.144531 8.242188 9.664062 8.304688 9.28125 8.328125 C 8.894531 8.347656 8.703125 8.359375 8.703125 8.359375 C 7.960938 8.359375 7.148438 8.265625 6.265625 8.078125 C 5.378906 7.890625 4.53125 7.582031 3.71875 7.15625 C 2.90625 6.726562 2.238281 6.171875 1.71875 5.484375 C 1.195312 4.804688 0.9375 3.972656 0.9375 2.984375 Z M 5.421875 -10.5625 C 4.578125 -10.28125 3.878906 -9.832031 3.328125 -9.21875 C 2.773438 -8.601562 2.441406 -7.898438 2.328125 -7.109375 C 2.210938 -6.328125 2.367188 -5.507812 2.796875 -4.65625 C 3.304688 -3.6875 4.019531 -2.945312 4.9375 -2.4375 C 5.851562 -1.925781 6.820312 -1.671875 7.84375 -1.671875 C 8.507812 -1.671875 9.144531 -1.78125 9.75 -2 C 10.613281 -2.300781 11.320312 -2.753906 11.875 -3.359375 C 12.4375 -3.972656 12.773438 -4.675781 12.890625 -5.46875 C 13.015625 -6.257812 12.859375 -7.078125 12.421875 -7.921875 C 11.941406 -8.878906 11.238281 -9.613281 10.3125 -10.125 C 9.382812 -10.632812 8.398438 -10.890625 7.359375 -10.890625 C 6.691406 -10.890625 6.046875 -10.78125 5.421875 -10.5625 Z M 2.90625 1.21875 C 2.40625 1.21875 2.003906 1.398438 1.703125 1.765625 C 1.410156 2.128906 1.265625 2.535156 1.265625 2.984375 C 1.265625 3.867188 1.503906 4.628906 1.984375 5.265625 C 2.472656 5.898438 3.097656 6.425781 3.859375 6.84375 C 4.628906 7.257812 5.4375 7.5625 6.28125 7.75 C 7.125 7.9375 7.90625 8.03125 8.625 8.03125 C 10.039062 8.03125 11.160156 7.671875 11.984375 6.953125 C 12.816406 6.234375 13.234375 5.316406 13.234375 4.203125 C 13.234375 3.390625 13.019531 2.738281 12.59375 2.25 C 12.175781 1.757812 11.640625 1.382812 10.984375 1.125 C 10.328125 0.875 9.628906 0.695312 8.890625 0.59375 C 9.398438 0.84375 9.8125 1.109375 10.125 1.390625 C 10.4375 1.671875 10.59375 2.109375 10.59375 2.703125 C 10.59375 3.128906 10.425781 3.519531 10.09375 3.875 C 9.757812 4.238281 9.234375 4.421875 8.515625 4.421875 C 7.921875 4.421875 7.390625 4.257812 6.921875 3.9375 C 6.453125 3.613281 6.007812 3.238281 5.59375 2.8125 C 5.1875 2.394531 4.765625 2.023438 4.328125 1.703125 C 3.898438 1.378906 3.425781 1.21875 2.90625 1.21875 Z M 2.90625 1.21875 "/></g></g></g><g fill="#0e675b" fill-opacity="1"><g transform="translate(349.615168, 60.186235)"><g><path d="M 1.453125 -7.703125 C 1.453125 -8.566406 1.4375 -9.238281 1.40625 -9.71875 C 1.382812 -10.195312 1.226562 -10.550781 0.9375 -10.78125 C 1.550781 -10.851562 2.101562 -10.988281 2.59375 -11.1875 C 2.59375 -10.9375 2.59375 -10.585938 2.59375 -10.140625 C 2.601562 -9.703125 2.609375 -9.253906 2.609375 -8.796875 C 2.609375 -8.335938 2.609375 -7.9375 2.609375 -7.59375 L 2.609375 -2.59375 C 2.609375 -2.082031 2.625 -1.59375 2.65625 -1.125 C 2.6875 -0.664062 2.84375 -0.289062 3.125 0 L 0.9375 0 C 1.226562 -0.289062 1.382812 -0.664062 1.40625 -1.125 C 1.4375 -1.59375 1.453125 -2.082031 1.453125 -2.59375 Z M 1.90625 -12.078125 C 1.644531 -12.078125 1.414062 -12.144531 1.21875 -12.28125 C 1.03125 -12.425781 0.9375 -12.59375 0.9375 -12.78125 C 0.9375 -12.976562 1.03125 -13.144531 1.21875 -13.28125 C 1.414062 -13.414062 1.644531 -13.484375 1.90625 -13.484375 C 2.175781 -13.484375 2.40625 -13.414062 2.59375 -13.28125 C 2.789062 -13.144531 2.890625 -12.976562 2.890625 -12.78125 C 2.890625 -12.59375 2.789062 -12.425781 2.59375 -12.28125 C 2.40625 -12.144531 2.175781 -12.078125 1.90625 -12.078125 Z M 1.90625 -12.078125 "/></g></g></g><g fill="#0e675b" fill-opacity="1"><g transform="translate(353.684403, 60.186235)"><g><path d="M 0.9375 -5.390625 C 0.9375 -6.554688 1.21875 -7.570312 1.78125 -8.4375 C 2.351562 -9.300781 3.117188 -9.972656 4.078125 -10.453125 C 5.046875 -10.941406 6.117188 -11.1875 7.296875 -11.1875 C 8.273438 -11.1875 9.164062 -11 9.96875 -10.625 C 10.78125 -10.257812 11.425781 -9.765625 11.90625 -9.140625 C 12.394531 -8.523438 12.640625 -7.832031 12.640625 -7.0625 C 12.640625 -6.769531 12.5625 -6.425781 12.40625 -6.03125 C 12.257812 -5.632812 11.992188 -5.289062 11.609375 -5 C 11.222656 -4.707031 10.660156 -4.5625 9.921875 -4.5625 C 9.421875 -4.5625 8.96875 -4.640625 8.5625 -4.796875 C 8.15625 -4.960938 7.757812 -5.117188 7.375 -5.265625 C 6.988281 -5.421875 6.550781 -5.5 6.0625 -5.5 C 5.394531 -5.5 4.863281 -5.300781 4.46875 -4.90625 C 4.070312 -4.507812 3.875 -3.96875 3.875 -3.28125 C 3.875 -2.75 4.050781 -2.238281 4.40625 -1.75 C 4.757812 -1.269531 5.210938 -0.875 5.765625 -0.5625 C 6.328125 -0.257812 6.910156 -0.109375 7.515625 -0.109375 C 8.503906 -0.109375 9.347656 -0.273438 10.046875 -0.609375 C 10.753906 -0.941406 11.40625 -1.546875 12 -2.421875 L 12.234375 -2.203125 C 11.679688 -1.429688 10.988281 -0.800781 10.15625 -0.3125 C 9.332031 0.164062 8.363281 0.40625 7.25 0.40625 C 6.0625 0.40625 4.988281 0.164062 4.03125 -0.3125 C 3.082031 -0.800781 2.328125 -1.484375 1.765625 -2.359375 C 1.210938 -3.234375 0.9375 -4.242188 0.9375 -5.390625 Z M 7.296875 -10.890625 C 6.398438 -10.890625 5.539062 -10.710938 4.71875 -10.359375 C 3.894531 -10.015625 3.21875 -9.484375 2.6875 -8.765625 C 2.164062 -8.054688 1.914062 -7.175781 1.9375 -6.125 C 1.976562 -4.96875 2.265625 -3.882812 2.796875 -2.875 C 3.335938 -1.875 4.078125 -1.113281 5.015625 -0.59375 C 4.617188 -0.9375 4.273438 -1.335938 3.984375 -1.796875 C 3.703125 -2.253906 3.5625 -2.757812 3.5625 -3.3125 C 3.5625 -4.144531 3.800781 -4.765625 4.28125 -5.171875 C 4.769531 -5.585938 5.363281 -5.796875 6.0625 -5.796875 C 6.5625 -5.796875 7.117188 -5.734375 7.734375 -5.609375 C 8.359375 -5.484375 8.941406 -5.421875 9.484375 -5.421875 C 10.046875 -5.421875 10.515625 -5.550781 10.890625 -5.8125 C 11.265625 -6.070312 11.453125 -6.585938 11.453125 -7.359375 C 11.453125 -8.003906 11.273438 -8.597656 10.921875 -9.140625 C 10.578125 -9.679688 10.085938 -10.109375 9.453125 -10.421875 C 8.828125 -10.734375 8.109375 -10.890625 7.296875 -10.890625 Z M 7.296875 -10.890625 "/></g></g></g></svg>